<svg xmlns="http://www.w3.org/2000/svg" xmlns:xlink="http://www.w3.org/1999/xlink" width="140" zoomAndPan="magnify" viewBox="0 0 104.88 112.499997" height="150" preserveAspectRatio="xMidYMid meet" version="1.0"><defs><g/><clipPath id="66b16235e8"><path d="M 1.15625 1 L 103.453125 1 L 103.453125 111 L 1.15625 111 Z M 1.15625 1 " clip-rule="nonzero"/></clipPath><clipPath id="bc2a9a5fb6"><path d="M 1.15625 0.710938 L 103.453125 0.710938 L 103.453125 111.21875 L 1.15625 111.21875 Z M 1.15625 0.710938 " clip-rule="nonzero"/></clipPath></defs><path fill="#000000" d="M 44.707031 48.636719 L 43.617188 48.636719 L 45.738281 58.894531 L 46.371094 58.894531 L 46.160156 54.71875 L 44.707031 48.636719 " fill-opacity="1" fill-rule="nonzero"/><path fill="#000000" d="M 44.707031 48.636719 L 44.707031 48.285156 L 43.617188 48.285156 C 43.507812 48.285156 43.410156 48.332031 43.339844 48.414062 C 43.273438 48.496094 43.25 48.605469 43.269531 48.707031 L 45.394531 58.964844 C 45.429688 59.128906 45.574219 59.246094 45.738281 59.246094 L 46.371094 59.246094 C 46.46875 59.246094 46.558594 59.207031 46.625 59.136719 C 46.691406 59.066406 46.726562 58.972656 46.722656 58.875 L 46.515625 54.703125 L 46.503906 54.636719 L 45.046875 48.554688 C 45.011719 48.398438 44.867188 48.285156 44.707031 48.285156 L 44.707031 48.636719 L 44.363281 48.71875 L 45.808594 54.769531 L 46 58.542969 L 45.738281 58.542969 L 45.738281 58.894531 L 46.085938 58.824219 L 44.046875 48.988281 L 44.707031 48.988281 L 44.707031 48.636719 L 44.363281 48.71875 L 44.707031 48.636719 " fill-opacity="1" fill-rule="nonzero"/><path fill="#000000" d="M 45.652344 48.636719 L 45.910156 49.714844 L 45.859375 48.636719 Z M 45.652344 48.636719 " fill-opacity="1" fill-rule="nonzero"/><path fill="#000000" d="M 45.652344 48.636719 L 45.308594 48.71875 L 45.566406 49.796875 C 45.609375 49.972656 45.777344 50.089844 45.957031 50.0625 C 46.140625 50.039062 46.269531 49.878906 46.261719 49.699219 L 46.210938 48.621094 C 46.203125 48.433594 46.046875 48.285156 45.859375 48.285156 L 45.652344 48.285156 C 45.546875 48.285156 45.441406 48.332031 45.378906 48.417969 C 45.308594 48.503906 45.285156 48.613281 45.308594 48.71875 L 45.652344 48.636719 L 45.652344 48.988281 L 45.859375 48.988281 L 45.859375 48.636719 L 45.503906 48.652344 L 45.558594 49.730469 L 45.910156 49.714844 L 46.253906 49.632812 L 45.996094 48.554688 L 45.652344 48.636719 L 45.652344 48.988281 L 45.652344 48.636719 " fill-opacity="1" fill-rule="nonzero"/><path fill="#000000" d="M 43.101562 27.460938 C 41.835938 27.5625 40.894531 28.671875 40.996094 29.941406 L 41.382812 34.703125 L 41.398438 34.703125 C 41.398438 34.492188 41.53125 34.304688 41.738281 34.253906 C 41.988281 34.195312 42.234375 34.347656 42.292969 34.59375 L 42.320312 34.703125 L 45.15625 34.703125 L 44.824219 28.046875 C 44.371094 27.640625 43.757812 27.40625 43.101562 27.460938 " fill-opacity="1" fill-rule="nonzero"/><path fill="#000000" d="M 43.101562 27.460938 L 43.070312 27.109375 C 41.6875 27.222656 40.636719 28.382812 40.632812 29.753906 C 40.632812 29.824219 40.636719 29.894531 40.644531 29.96875 L 41.03125 34.730469 C 41.046875 34.914062 41.199219 35.054688 41.382812 35.054688 L 41.398438 35.054688 C 41.492188 35.054688 41.578125 35.019531 41.644531 34.953125 C 41.710938 34.882812 41.75 34.796875 41.75 34.703125 L 41.769531 34.628906 L 41.824219 34.597656 L 41.820312 34.597656 L 41.84375 34.59375 C 41.894531 34.59375 41.941406 34.628906 41.949219 34.675781 L 41.976562 34.785156 C 42.015625 34.941406 42.15625 35.054688 42.320312 35.054688 L 45.15625 35.054688 C 45.253906 35.054688 45.347656 35.015625 45.414062 34.945312 C 45.480469 34.875 45.515625 34.78125 45.511719 34.683594 L 45.175781 28.027344 C 45.171875 27.933594 45.128906 27.84375 45.058594 27.78125 C 44.589844 27.363281 43.964844 27.101562 43.289062 27.101562 C 43.21875 27.101562 43.144531 27.105469 43.070312 27.109375 L 43.132812 27.8125 C 43.183594 27.808594 43.234375 27.808594 43.289062 27.808594 C 43.78125 27.808594 44.238281 27.996094 44.589844 28.308594 L 44.824219 28.046875 L 44.472656 28.0625 L 44.785156 34.347656 L 42.320312 34.347656 L 42.320312 34.703125 L 42.664062 34.617188 L 42.636719 34.507812 C 42.542969 34.136719 42.214844 33.886719 41.84375 33.886719 C 41.78125 33.886719 41.71875 33.894531 41.65625 33.910156 C 41.46875 33.957031 41.3125 34.066406 41.207031 34.207031 C 41.101562 34.347656 41.042969 34.523438 41.042969 34.703125 L 41.398438 34.703125 L 41.398438 34.347656 L 41.382812 34.347656 L 41.382812 34.703125 L 41.738281 34.671875 L 41.347656 29.914062 C 41.34375 29.859375 41.339844 29.804688 41.339844 29.753906 C 41.339844 28.75 42.113281 27.894531 43.128906 27.8125 L 43.132812 27.8125 L 43.101562 27.460938 " fill-opacity="1" fill-rule="nonzero"/><path fill="#000000" d="M 42.675781 46.347656 C 42.917969 46.292969 43.167969 46.457031 43.21875 46.707031 L 43.238281 46.800781 L 44.269531 46.800781 L 41.8125 36.539062 L 41.535156 36.539062 L 42.351562 46.613281 C 42.414062 46.484375 42.523438 46.378906 42.675781 46.347656 " fill-opacity="1" fill-rule="nonzero"/><path fill="#000000" d="M 42.675781 46.347656 L 42.75 46.691406 L 42.769531 46.6875 C 42.808594 46.6875 42.867188 46.726562 42.871094 46.777344 L 43.21875 46.707031 L 42.871094 46.773438 L 42.890625 46.867188 C 42.921875 47.035156 43.070312 47.152344 43.238281 47.152344 L 44.269531 47.152344 C 44.378906 47.152344 44.476562 47.105469 44.546875 47.019531 C 44.613281 46.933594 44.636719 46.824219 44.613281 46.71875 L 42.15625 36.457031 C 42.117188 36.296875 41.976562 36.1875 41.8125 36.1875 L 41.535156 36.1875 C 41.4375 36.1875 41.339844 36.226562 41.273438 36.300781 C 41.207031 36.371094 41.175781 36.46875 41.179688 36.566406 L 42 46.644531 C 42.015625 46.804688 42.132812 46.933594 42.292969 46.960938 C 42.449219 46.988281 42.605469 46.90625 42.671875 46.761719 C 42.699219 46.714844 42.71875 46.699219 42.746094 46.691406 L 42.75 46.691406 L 42.675781 46.347656 L 42.601562 46 C 42.324219 46.058594 42.125 46.253906 42.03125 46.46875 L 42.351562 46.613281 L 42.703125 46.585938 L 41.886719 36.511719 L 41.535156 36.539062 L 41.535156 36.890625 L 43.820312 46.445312 L 43.238281 46.445312 L 43.238281 46.800781 L 43.582031 46.730469 L 43.566406 46.636719 L 43.5625 46.632812 C 43.480469 46.25 43.152344 45.984375 42.769531 45.984375 C 42.710938 45.984375 42.652344 45.988281 42.597656 46.003906 L 42.675781 46.347656 L 42.601562 46 L 42.675781 46.347656 " fill-opacity="1" fill-rule="nonzero"/><path fill="#000000" d="M 42.757812 36.539062 L 45.214844 46.800781 L 45.765625 46.800781 L 45.25 36.539062 L 42.757812 36.539062 " fill-opacity="1" fill-rule="nonzero"/><path fill="#000000" d="M 42.757812 36.539062 L 42.414062 36.621094 L 44.871094 46.882812 C 44.90625 47.039062 45.050781 47.152344 45.214844 47.152344 L 45.765625 47.152344 C 45.859375 47.152344 45.953125 47.113281 46.019531 47.042969 C 46.085938 46.972656 46.121094 46.878906 46.117188 46.78125 L 45.601562 36.519531 C 45.59375 36.332031 45.4375 36.1875 45.25 36.1875 L 42.757812 36.1875 C 42.648438 36.1875 42.546875 36.234375 42.480469 36.320312 C 42.414062 36.40625 42.390625 36.515625 42.414062 36.621094 L 42.757812 36.539062 L 42.757812 36.890625 L 44.914062 36.890625 L 45.390625 46.445312 L 45.214844 46.445312 L 45.214844 46.800781 L 45.554688 46.71875 L 43.101562 36.457031 L 42.757812 36.539062 L 42.757812 36.890625 L 42.757812 36.539062 " fill-opacity="1" fill-rule="nonzero"/><path fill="#000000" d="M 43.503906 60.734375 L 43.765625 63.921875 C 43.785156 64.1875 43.867188 64.425781 43.988281 64.640625 L 43.628906 60.734375 L 43.503906 60.734375 " fill-opacity="1" fill-rule="nonzero"/><path fill="#000000" d="M 43.503906 60.734375 L 43.152344 60.765625 L 43.414062 63.949219 C 43.4375 64.269531 43.539062 64.5625 43.683594 64.816406 C 43.761719 64.960938 43.933594 65.027344 44.09375 64.976562 C 44.253906 64.929688 44.355469 64.773438 44.339844 64.609375 L 43.976562 60.703125 C 43.960938 60.519531 43.808594 60.382812 43.628906 60.382812 L 43.503906 60.382812 C 43.40625 60.382812 43.3125 60.421875 43.246094 60.496094 C 43.179688 60.566406 43.148438 60.664062 43.152344 60.765625 L 43.503906 60.734375 L 43.503906 61.085938 L 43.628906 61.085938 L 43.628906 60.734375 L 43.277344 60.769531 L 43.636719 64.675781 L 43.988281 64.640625 L 44.296875 64.46875 C 44.195312 64.289062 44.132812 64.101562 44.117188 63.894531 L 43.859375 60.707031 L 43.503906 60.734375 L 43.503906 61.085938 L 43.503906 60.734375 " fill-opacity="1" fill-rule="nonzero"/><path fill="#000000" d="M 44.375 58.855469 L 44.378906 58.894531 L 44.800781 58.894531 L 42.679688 48.636719 L 42.515625 48.636719 L 43.355469 58.894531 L 43.460938 58.894531 C 43.460938 58.660156 43.636719 58.460938 43.875 58.4375 C 44.117188 58.421875 44.351562 58.597656 44.375 58.855469 " fill-opacity="1" fill-rule="nonzero"/><path fill="#000000" d="M 44.375 58.855469 L 44.023438 58.886719 L 44.027344 58.929688 C 44.042969 59.109375 44.195312 59.246094 44.378906 59.246094 L 44.800781 59.246094 C 44.90625 59.246094 45.007812 59.199219 45.074219 59.117188 C 45.140625 59.035156 45.167969 58.925781 45.144531 58.824219 L 43.023438 48.566406 C 42.988281 48.402344 42.847656 48.285156 42.679688 48.285156 L 42.515625 48.285156 C 42.417969 48.285156 42.324219 48.328125 42.257812 48.398438 C 42.191406 48.46875 42.160156 48.566406 42.164062 48.664062 L 43.003906 58.921875 C 43.019531 59.105469 43.171875 59.246094 43.355469 59.246094 L 43.460938 59.246094 C 43.554688 59.246094 43.644531 59.210938 43.710938 59.144531 C 43.777344 59.078125 43.8125 58.988281 43.8125 58.894531 C 43.816406 58.839844 43.851562 58.792969 43.910156 58.789062 L 43.875 58.4375 L 43.898438 58.789062 L 43.90625 58.789062 L 43.988281 58.820312 L 44.023438 58.886719 L 44.726562 58.820312 C 44.707031 58.605469 44.597656 58.414062 44.449219 58.285156 C 44.300781 58.160156 44.109375 58.085938 43.90625 58.082031 L 43.851562 58.085938 L 43.839844 58.085938 C 43.417969 58.128906 43.105469 58.484375 43.109375 58.894531 L 43.460938 58.894531 L 43.460938 58.542969 L 43.355469 58.542969 L 43.355469 58.894531 L 43.707031 58.867188 L 42.871094 48.609375 L 42.515625 48.636719 L 42.515625 48.988281 L 42.679688 48.988281 L 42.679688 48.636719 L 42.332031 48.707031 L 44.453125 58.964844 L 44.800781 58.894531 L 44.800781 58.542969 L 44.378906 58.542969 L 44.378906 58.894531 L 44.730469 58.859375 L 44.726562 58.820312 L 44.375 58.855469 " fill-opacity="1" fill-rule="nonzero"/><path fill="#000000" d="M 46.464844 60.734375 L 46.121094 60.734375 L 46.570312 62.910156 Z M 46.464844 60.734375 " fill-opacity="1" fill-rule="nonzero"/><path fill="#000000" d="M 46.464844 60.734375 L 46.464844 60.382812 L 46.121094 60.382812 C 46.015625 60.382812 45.914062 60.429688 45.847656 60.511719 C 45.78125 60.59375 45.753906 60.703125 45.773438 60.804688 L 46.226562 62.980469 C 46.261719 63.160156 46.429688 63.285156 46.613281 63.261719 C 46.796875 63.238281 46.933594 63.078125 46.921875 62.894531 L 46.816406 60.71875 C 46.808594 60.53125 46.652344 60.382812 46.464844 60.382812 L 46.464844 60.734375 L 46.113281 60.753906 L 46.21875 62.925781 L 46.570312 62.910156 L 46.914062 62.839844 L 46.46875 60.664062 L 46.121094 60.734375 L 46.121094 61.085938 L 46.464844 61.085938 L 46.464844 60.734375 L 46.113281 60.753906 L 46.464844 60.734375 " fill-opacity="1" fill-rule="nonzero"/><path fill="#000000" d="M 45.613281 65.542969 C 45.804688 65.535156 45.984375 65.488281 46.152344 65.425781 L 45.179688 60.734375 L 44.550781 60.734375 L 44.988281 65.460938 C 45.183594 65.523438 45.394531 65.554688 45.613281 65.542969 " fill-opacity="1" fill-rule="nonzero"/><path fill="#000000" d="M 45.613281 65.542969 L 45.628906 65.894531 C 45.867188 65.886719 46.085938 65.828125 46.277344 65.753906 C 46.441406 65.695312 46.535156 65.523438 46.5 65.351562 L 45.527344 60.664062 C 45.496094 60.5 45.347656 60.382812 45.179688 60.382812 L 44.550781 60.382812 C 44.453125 60.382812 44.355469 60.421875 44.289062 60.496094 C 44.222656 60.570312 44.191406 60.667969 44.199219 60.769531 L 44.636719 65.492188 C 44.652344 65.632812 44.746094 65.753906 44.882812 65.796875 C 45.082031 65.859375 45.296875 65.898438 45.523438 65.898438 C 45.558594 65.898438 45.59375 65.894531 45.628906 65.894531 L 45.613281 65.542969 L 45.601562 65.191406 L 45.523438 65.191406 C 45.375 65.191406 45.234375 65.167969 45.097656 65.125 L 44.988281 65.460938 L 45.339844 65.429688 L 44.9375 61.085938 L 45.179688 61.085938 L 45.179688 60.734375 L 44.835938 60.804688 L 45.808594 65.496094 L 46.152344 65.425781 L 46.027344 65.09375 C 45.882812 65.148438 45.738281 65.183594 45.597656 65.191406 L 45.601562 65.191406 L 45.613281 65.542969 " fill-opacity="1" fill-rule="nonzero"/><path fill="#000000" d="M 63.460938 34.703125 L 63.851562 29.941406 C 63.953125 28.671875 63.011719 27.5625 61.746094 27.460938 C 61.097656 27.410156 60.492188 27.632812 60.042969 28.027344 L 59.707031 34.703125 L 62.640625 34.703125 L 62.660156 34.621094 C 62.707031 34.433594 62.898438 34.316406 63.078125 34.363281 C 63.234375 34.402344 63.339844 34.542969 63.335938 34.703125 L 63.460938 34.703125 " fill-opacity="1" fill-rule="nonzero"/><path fill="#000000" d="M 63.460938 34.703125 L 63.8125 34.730469 L 64.203125 29.96875 C 64.207031 29.894531 64.210938 29.824219 64.210938 29.753906 C 64.210938 28.382812 63.160156 27.222656 61.773438 27.109375 C 61.703125 27.105469 61.632812 27.101562 61.5625 27.101562 C 60.894531 27.101562 60.277344 27.347656 59.808594 27.765625 C 59.738281 27.828125 59.695312 27.914062 59.6875 28.011719 L 59.355469 34.683594 C 59.351562 34.78125 59.386719 34.875 59.453125 34.945312 C 59.519531 35.015625 59.609375 35.054688 59.707031 35.054688 L 62.640625 35.054688 C 62.804688 35.054688 62.945312 34.941406 62.984375 34.785156 L 63.003906 34.699219 L 62.660156 34.621094 L 63.003906 34.703125 L 63 34.6875 L 63 34.703125 L 63.003906 34.703125 L 63 34.6875 L 63 34.703125 L 63 34.65625 L 62.984375 34.703125 L 63 34.703125 L 63 34.65625 L 62.984375 34.703125 L 62.992188 34.703125 L 63 34.6875 L 62.984375 34.699219 L 62.992188 34.703125 L 63 34.6875 L 62.984375 34.699219 L 62.992188 34.691406 L 62.980469 34.691406 L 62.984375 34.699219 L 62.992188 34.691406 L 62.980469 34.691406 L 63.070312 34.691406 L 62.980469 34.691406 L 63.070312 34.691406 L 62.980469 34.691406 L 62.980469 34.71875 C 62.992188 34.90625 63.148438 35.054688 63.335938 35.054688 L 63.460938 35.054688 C 63.644531 35.054688 63.796875 34.914062 63.8125 34.730469 L 63.460938 34.703125 L 63.460938 34.347656 L 63.335938 34.347656 L 63.335938 34.703125 L 63.6875 34.683594 L 63.421875 34.695312 L 63.6875 34.695312 L 63.6875 34.683594 L 63.421875 34.695312 L 63.6875 34.695312 L 63.617188 34.695312 L 63.6875 34.699219 L 63.6875 34.695312 L 63.617188 34.695312 L 63.6875 34.699219 L 63.6875 34.691406 C 63.6875 34.382812 63.480469 34.097656 63.164062 34.019531 L 63.078125 34.363281 L 63.171875 34.023438 C 63.109375 34.007812 63.050781 34 63 34 C 62.675781 34.003906 62.402344 34.21875 62.320312 34.53125 L 62.320312 34.535156 L 62.300781 34.621094 L 62.640625 34.703125 L 62.640625 34.347656 L 60.078125 34.347656 L 60.394531 28.046875 L 60.042969 28.027344 L 60.273438 28.292969 C 60.625 27.988281 61.070312 27.808594 61.5625 27.808594 C 61.613281 27.808594 61.664062 27.808594 61.71875 27.8125 C 62.734375 27.894531 63.503906 28.746094 63.503906 29.753906 C 63.503906 29.804688 63.503906 29.859375 63.5 29.914062 L 63.109375 34.671875 L 63.460938 34.703125 L 63.460938 34.347656 L 63.460938 34.703125 " fill-opacity="1" fill-rule="nonzero"/><g clip-path="url(#66b16235e8)"><path fill="#000000" d="M 52.421875 1.0625 C 20.65625 1.0625 1.597656 9.066406 1.597656 42.058594 C 1.597656 52.003906 5.445312 62.820312 11.066406 73.0625 C 12.53125 75.746094 14.121094 78.394531 15.792969 80.96875 C 23.804688 93.332031 33.730469 104.21875 41.441406 110.824219 L 41.472656 109.121094 L 41.484375 108.582031 L 41.664062 99.265625 L 41.675781 98.628906 L 41.828125 90.648438 L 41.847656 89.59375 L 41.992188 82.238281 L 42.011719 81.183594 L 42.1875 72.023438 L 42.1875 71.335938 C 39.394531 70.699219 37.308594 68.203125 37.308594 65.210938 L 36.914062 60.734375 L 34.714844 60.734375 C 34.496094 61.320312 34.066406 61.828125 33.503906 62.199219 C 32.941406 62.570312 32.246094 62.804688 31.484375 62.84375 C 31.398438 62.855469 31.316406 62.855469 31.234375 62.855469 C 29.226562 62.855469 28.316406 62.957031 28.316406 59.824219 C 28.316406 56.675781 29.226562 56.777344 31.234375 56.777344 C 31.316406 56.777344 31.398438 56.777344 31.484375 56.785156 L 31.484375 56.789062 C 33.003906 56.863281 34.269531 57.726562 34.714844 58.894531 L 36.753906 58.894531 L 35.847656 48.636719 L 34.136719 48.636719 C 33.695312 49.800781 32.445312 50.65625 30.941406 50.742188 L 30.933594 50.746094 C 30.851562 50.757812 30.769531 50.757812 30.6875 50.757812 L 30.34375 50.757812 C 28.578125 50.757812 27.773438 50.671875 27.773438 47.71875 L 27.773438 47.714844 C 27.773438 46.632812 27.882812 45.9375 28.109375 45.488281 C 28.535156 44.640625 29.375 44.679688 30.6875 44.679688 C 30.769531 44.679688 30.851562 44.679688 30.933594 44.6875 L 30.941406 44.691406 C 32.445312 44.777344 33.695312 45.632812 34.136719 46.800781 L 35.6875 46.800781 L 34.78125 36.539062 L 33.605469 36.539062 C 33.164062 37.699219 31.917969 38.5625 30.402344 38.648438 C 30.320312 38.65625 30.234375 38.65625 30.152344 38.65625 C 28.148438 38.65625 27.242188 38.757812 27.242188 35.621094 C 27.242188 32.480469 28.148438 32.582031 30.152344 32.582031 C 30.234375 32.582031 30.320312 32.582031 30.402344 32.589844 C 31.917969 32.675781 33.164062 33.535156 33.601562 34.703125 L 34.617188 34.703125 L 33.855469 26.003906 C 33.855469 24.117188 33.730469 21.371094 37.203125 21.371094 C 37.203125 21.371094 38.582031 21.371094 40.765625 21.371094 C 42.863281 21.371094 47.292969 16.445312 52.117188 16.042969 L 52.117188 16.007812 C 52.21875 16.007812 52.320312 16.019531 52.425781 16.023438 C 52.527344 16.019531 52.625 16.007812 52.726562 16.007812 L 52.726562 16.042969 C 57.550781 16.445312 61.984375 21.371094 64.078125 21.371094 C 66.261719 21.371094 67.644531 21.371094 67.644531 21.371094 C 71.113281 21.371094 70.996094 24.117188 70.996094 26.003906 L 70.226562 34.703125 L 71.234375 34.703125 C 71.675781 33.535156 72.929688 32.679688 74.4375 32.59375 L 74.441406 32.589844 C 74.523438 32.582031 74.605469 32.582031 74.691406 32.582031 C 75.992188 32.582031 76.828125 32.539062 77.257812 33.378906 C 77.492188 33.828125 77.605469 34.519531 77.605469 35.617188 L 77.605469 35.621094 C 77.605469 38.757812 76.691406 38.65625 74.691406 38.65625 C 74.605469 38.65625 74.523438 38.65625 74.441406 38.648438 L 74.4375 38.644531 C 72.929688 38.558594 71.675781 37.699219 71.238281 36.539062 L 70.0625 36.539062 L 69.15625 46.800781 L 70.707031 46.800781 C 71.148438 45.632812 72.398438 44.78125 73.90625 44.691406 L 73.910156 44.6875 C 73.992188 44.679688 74.074219 44.679688 74.15625 44.679688 C 75.035156 44.679688 75.703125 44.660156 76.175781 44.902344 C 76.785156 45.210938 77.074219 45.949219 77.074219 47.714844 C 77.074219 49.292969 76.84375 50.046875 76.367188 50.414062 C 75.890625 50.78125 75.160156 50.757812 74.15625 50.757812 C 74.074219 50.757812 73.992188 50.757812 73.910156 50.746094 L 73.90625 50.742188 C 72.398438 50.65625 71.148438 49.796875 70.707031 48.636719 L 68.996094 48.636719 L 68.089844 58.894531 L 70.128906 58.894531 C 70.574219 57.726562 71.839844 56.867188 73.359375 56.789062 L 73.359375 56.785156 C 73.441406 56.777344 73.523438 56.777344 73.609375 56.777344 C 75.613281 56.777344 76.523438 56.675781 76.523438 59.824219 C 76.523438 62.957031 75.613281 62.855469 73.609375 62.855469 C 73.523438 62.855469 73.441406 62.855469 73.359375 62.84375 C 71.839844 62.765625 70.574219 61.902344 70.128906 60.734375 L 67.929688 60.734375 L 67.535156 65.210938 C 67.535156 68.199219 65.453125 70.699219 62.65625 71.335938 L 62.65625 72.0625 L 63.40625 110.824219 C 63.359375 110.863281 63.316406 110.898438 63.273438 110.9375 C 63.316406 110.898438 63.363281 110.863281 63.40625 110.824219 C 71.117188 104.21875 81.046875 93.328125 89.050781 80.96875 C 90.722656 78.394531 92.3125 75.746094 93.78125 73.0625 C 99.398438 62.820312 103.246094 52.003906 103.246094 42.058594 C 103.246094 9.066406 84.1875 1.0625 52.421875 1.0625 " fill-opacity="1" fill-rule="nonzero"/></g><g clip-path="url(#bc2a9a5fb6)"><path fill="#000000" d="M 52.421875 1.0625 L 52.421875 0.710938 C 44.464844 0.710938 37.296875 1.210938 31.011719 2.480469 C 21.582031 4.390625 14.121094 8.042969 9.03125 14.367188 C 3.9375 20.6875 1.246094 29.636719 1.246094 42.058594 C 1.246094 52.097656 5.121094 62.957031 10.757812 73.230469 C 12.226562 75.921875 13.820312 78.578125 15.496094 81.160156 C 23.527344 93.554688 33.46875 104.460938 41.210938 111.089844 C 41.3125 111.179688 41.460938 111.199219 41.585938 111.144531 C 41.707031 111.089844 41.789062 110.964844 41.792969 110.828125 L 41.824219 109.125 L 41.824219 109.128906 L 41.835938 108.589844 L 42.015625 99.269531 L 42.027344 98.632812 L 42.183594 90.652344 L 42.203125 89.601562 L 42.34375 82.242188 L 42.363281 81.1875 L 42.539062 72.03125 L 42.539062 71.335938 C 42.539062 71.171875 42.425781 71.03125 42.265625 70.996094 C 39.628906 70.390625 37.660156 68.035156 37.660156 65.210938 L 37.660156 65.179688 L 37.265625 60.703125 C 37.25 60.519531 37.097656 60.382812 36.914062 60.382812 L 34.714844 60.382812 C 34.570312 60.382812 34.4375 60.472656 34.386719 60.609375 C 34.195312 61.117188 33.820312 61.570312 33.308594 61.90625 C 32.800781 62.242188 32.167969 62.453125 31.464844 62.492188 L 31.429688 62.496094 C 31.382812 62.5 31.316406 62.503906 31.234375 62.503906 C 31.113281 62.503906 31 62.503906 30.890625 62.503906 C 30.453125 62.503906 30.082031 62.496094 29.800781 62.449219 C 29.585938 62.414062 29.425781 62.355469 29.300781 62.277344 C 29.203125 62.214844 29.125 62.140625 29.050781 62.03125 C 28.941406 61.871094 28.84375 61.628906 28.773438 61.265625 C 28.707031 60.90625 28.671875 60.429688 28.671875 59.824219 C 28.671875 59.101562 28.722656 58.5625 28.8125 58.183594 C 28.882812 57.898438 28.972656 57.703125 29.074219 57.566406 C 29.152344 57.464844 29.230469 57.394531 29.328125 57.335938 C 29.476562 57.25 29.671875 57.195312 29.933594 57.164062 C 30.191406 57.132812 30.507812 57.128906 30.878906 57.128906 C 30.992188 57.128906 31.109375 57.128906 31.234375 57.128906 C 31.316406 57.128906 31.386719 57.128906 31.445312 57.136719 L 31.484375 56.785156 L 31.128906 56.785156 L 31.128906 56.789062 C 31.128906 56.976562 31.277344 57.132812 31.464844 57.140625 C 32.867188 57.210938 34.007812 58.007812 34.386719 59.019531 C 34.4375 59.15625 34.570312 59.246094 34.714844 59.246094 L 36.753906 59.246094 C 36.855469 59.246094 36.949219 59.207031 37.015625 59.132812 C 37.082031 59.058594 37.113281 58.960938 37.105469 58.863281 L 36.199219 48.605469 C 36.183594 48.425781 36.03125 48.285156 35.847656 48.285156 L 34.136719 48.285156 C 33.992188 48.285156 33.859375 48.375 33.808594 48.511719 C 33.429688 49.519531 32.308594 50.3125 30.917969 50.390625 C 30.835938 50.394531 30.761719 50.425781 30.699219 50.480469 L 30.695312 50.484375 L 30.933594 50.746094 L 30.882812 50.394531 C 30.835938 50.402344 30.769531 50.40625 30.6875 50.40625 L 30.34375 50.40625 C 29.90625 50.40625 29.539062 50.398438 29.253906 50.347656 C 29.042969 50.3125 28.878906 50.257812 28.753906 50.175781 C 28.660156 50.117188 28.578125 50.042969 28.503906 49.933594 C 28.394531 49.773438 28.292969 49.53125 28.230469 49.167969 C 28.160156 48.804688 28.125 48.328125 28.125 47.71875 L 28.125 47.714844 C 28.121094 46.652344 28.238281 46.003906 28.425781 45.648438 C 28.503906 45.492188 28.589844 45.390625 28.6875 45.3125 C 28.832031 45.195312 29.03125 45.121094 29.3125 45.078125 C 29.589844 45.035156 29.945312 45.03125 30.363281 45.03125 C 30.46875 45.03125 30.574219 45.03125 30.6875 45.03125 C 30.769531 45.03125 30.839844 45.03125 30.898438 45.039062 L 30.933594 44.6875 L 30.695312 44.945312 L 30.699219 44.949219 C 30.761719 45.007812 30.835938 45.039062 30.917969 45.042969 C 32.304688 45.121094 33.429688 45.914062 33.808594 46.925781 C 33.859375 47.0625 33.992188 47.152344 34.136719 47.152344 L 35.6875 47.152344 C 35.785156 47.152344 35.878906 47.113281 35.949219 47.039062 C 36.015625 46.964844 36.046875 46.867188 36.039062 46.769531 L 35.132812 36.507812 C 35.117188 36.324219 34.964844 36.1875 34.78125 36.1875 L 33.605469 36.1875 C 33.460938 36.1875 33.328125 36.277344 33.277344 36.414062 C 32.898438 37.421875 31.777344 38.214844 30.378906 38.296875 L 30.363281 38.296875 C 30.308594 38.300781 30.234375 38.304688 30.152344 38.304688 C 30.03125 38.304688 29.910156 38.304688 29.796875 38.304688 C 29.363281 38.304688 28.996094 38.296875 28.714844 38.25 C 28.503906 38.210938 28.34375 38.15625 28.21875 38.074219 C 28.125 38.015625 28.046875 37.941406 27.972656 37.832031 C 27.859375 37.671875 27.761719 37.429688 27.695312 37.066406 C 27.628906 36.703125 27.59375 36.230469 27.59375 35.621094 C 27.59375 34.902344 27.644531 34.363281 27.738281 33.984375 C 27.804688 33.699219 27.894531 33.503906 27.996094 33.371094 C 28.070312 33.269531 28.152344 33.199219 28.25 33.140625 C 28.398438 33.054688 28.59375 33 28.855469 32.96875 C 29.113281 32.9375 29.429688 32.933594 29.796875 32.933594 C 29.910156 32.933594 30.027344 32.933594 30.152344 32.933594 C 30.234375 32.933594 30.308594 32.933594 30.363281 32.9375 L 30.378906 32.941406 C 31.777344 33.019531 32.898438 33.816406 33.273438 34.824219 C 33.324219 34.960938 33.453125 35.054688 33.601562 35.054688 L 34.617188 35.054688 C 34.71875 35.054688 34.808594 35.011719 34.878906 34.941406 C 34.945312 34.867188 34.976562 34.769531 34.96875 34.671875 L 34.207031 25.972656 L 33.855469 26.003906 L 34.207031 26.003906 C 34.207031 25.878906 34.207031 25.75 34.207031 25.621094 C 34.203125 24.699219 34.242188 23.6875 34.625 22.964844 C 34.816406 22.601562 35.078125 22.304688 35.480469 22.085938 C 35.882812 21.867188 36.433594 21.722656 37.203125 21.722656 C 37.203125 21.722656 37.546875 21.722656 38.164062 21.722656 C 38.785156 21.722656 39.675781 21.722656 40.765625 21.722656 C 41.097656 21.722656 41.433594 21.628906 41.792969 21.484375 C 42.414062 21.230469 43.105469 20.804688 43.871094 20.304688 C 45.015625 19.554688 46.328125 18.636719 47.734375 17.878906 C 49.136719 17.117188 50.636719 16.519531 52.148438 16.394531 C 52.328125 16.378906 52.46875 16.226562 52.46875 16.042969 L 52.46875 16.007812 L 52.117188 16.007812 L 52.117188 16.359375 C 52.183594 16.355469 52.28125 16.371094 52.410156 16.378906 L 52.4375 16.378906 C 52.566406 16.371094 52.660156 16.355469 52.726562 16.359375 L 52.726562 16.007812 L 52.375 16.007812 L 52.375 16.042969 C 52.375 16.226562 52.515625 16.378906 52.699219 16.394531 C 55 16.582031 57.273438 17.878906 59.234375 19.152344 C 60.214844 19.792969 61.117188 20.421875 61.917969 20.898438 C 62.320312 21.136719 62.699219 21.339844 63.054688 21.484375 C 63.410156 21.628906 63.746094 21.722656 64.078125 21.722656 C 66.261719 21.722656 67.644531 21.722656 67.644531 21.722656 C 68.410156 21.722656 68.964844 21.867188 69.367188 22.085938 C 69.671875 22.25 69.890625 22.460938 70.066406 22.707031 C 70.328125 23.078125 70.476562 23.546875 70.554688 24.054688 C 70.632812 24.566406 70.640625 25.113281 70.640625 25.632812 C 70.640625 25.757812 70.640625 25.882812 70.640625 26.003906 L 70.996094 26.003906 L 70.644531 25.972656 L 69.875 34.671875 C 69.867188 34.769531 69.902344 34.867188 69.96875 34.941406 C 70.035156 35.011719 70.128906 35.054688 70.226562 35.054688 L 71.234375 35.054688 C 71.382812 35.054688 71.511719 34.964844 71.5625 34.824219 C 71.941406 33.816406 73.070312 33.023438 74.457031 32.945312 C 74.546875 32.941406 74.625 32.90625 74.6875 32.84375 L 74.691406 32.839844 L 74.441406 32.589844 L 74.476562 32.941406 C 74.535156 32.933594 74.605469 32.933594 74.691406 32.933594 C 74.800781 32.933594 74.910156 32.933594 75.015625 32.933594 C 75.570312 32.929688 76.011719 32.945312 76.3125 33.03125 C 76.464844 33.074219 76.582031 33.132812 76.679688 33.210938 C 76.78125 33.285156 76.863281 33.386719 76.945312 33.539062 L 76.945312 33.542969 C 77.132812 33.898438 77.253906 34.542969 77.253906 35.617188 L 77.253906 35.621094 C 77.253906 36.34375 77.199219 36.875 77.109375 37.253906 C 77.039062 37.539062 76.949219 37.734375 76.847656 37.867188 C 76.773438 37.96875 76.691406 38.039062 76.59375 38.09375 C 76.445312 38.179688 76.25 38.238281 75.988281 38.269531 C 75.730469 38.296875 75.414062 38.304688 75.042969 38.304688 C 74.929688 38.304688 74.8125 38.304688 74.691406 38.304688 C 74.605469 38.304688 74.535156 38.300781 74.476562 38.296875 L 74.441406 38.648438 L 74.691406 38.398438 L 74.6875 38.394531 C 74.625 38.332031 74.542969 38.296875 74.457031 38.292969 C 73.070312 38.214844 71.941406 37.417969 71.566406 36.414062 C 71.515625 36.277344 71.386719 36.1875 71.238281 36.1875 L 70.0625 36.1875 C 69.878906 36.1875 69.726562 36.324219 69.710938 36.507812 L 68.804688 46.769531 C 68.796875 46.867188 68.828125 46.964844 68.898438 47.039062 C 68.964844 47.113281 69.058594 47.152344 69.15625 47.152344 L 70.707031 47.152344 C 70.855469 47.152344 70.984375 47.0625 71.039062 46.925781 C 71.414062 45.914062 72.539062 45.125 73.929688 45.042969 C 74.011719 45.039062 74.09375 45 74.15625 44.941406 L 74.160156 44.9375 L 73.910156 44.6875 L 73.945312 45.039062 C 74.003906 45.03125 74.074219 45.03125 74.15625 45.03125 C 74.277344 45.03125 74.394531 45.03125 74.507812 45.03125 C 74.859375 45.03125 75.164062 45.035156 75.417969 45.0625 C 75.667969 45.089844 75.867188 45.140625 76.015625 45.21875 C 76.128906 45.273438 76.21875 45.34375 76.296875 45.445312 C 76.417969 45.597656 76.527344 45.832031 76.605469 46.199219 C 76.679688 46.570312 76.71875 47.066406 76.71875 47.714844 C 76.71875 48.484375 76.664062 49.042969 76.558594 49.425781 C 76.453125 49.8125 76.316406 50.007812 76.148438 50.136719 C 76.003906 50.246094 75.808594 50.316406 75.53125 50.359375 C 75.253906 50.398438 74.902344 50.40625 74.484375 50.40625 C 74.378906 50.40625 74.269531 50.40625 74.15625 50.40625 C 74.074219 50.40625 74.011719 50.402344 73.960938 50.394531 L 73.910156 50.746094 L 74.160156 50.496094 L 74.15625 50.492188 C 74.09375 50.429688 74.011719 50.394531 73.925781 50.390625 C 72.539062 50.3125 71.414062 49.515625 71.039062 48.511719 C 70.984375 48.375 70.851562 48.285156 70.707031 48.285156 L 68.996094 48.285156 C 68.8125 48.285156 68.660156 48.425781 68.644531 48.605469 L 67.738281 58.863281 C 67.730469 58.960938 67.761719 59.058594 67.832031 59.132812 C 67.898438 59.207031 67.992188 59.246094 68.089844 59.246094 L 70.128906 59.246094 C 70.273438 59.246094 70.40625 59.15625 70.457031 59.019531 C 70.839844 58.007812 71.980469 57.210938 73.378906 57.140625 C 73.5625 57.132812 73.710938 56.976562 73.710938 56.789062 L 73.710938 56.785156 L 73.359375 56.785156 L 73.394531 57.136719 C 73.453125 57.128906 73.523438 57.128906 73.609375 57.128906 C 73.730469 57.128906 73.847656 57.128906 73.960938 57.128906 C 74.398438 57.128906 74.765625 57.136719 75.046875 57.183594 C 75.257812 57.21875 75.417969 57.277344 75.542969 57.359375 C 75.636719 57.417969 75.714844 57.492188 75.792969 57.601562 C 75.902344 57.761719 76 58.007812 76.066406 58.371094 C 76.132812 58.734375 76.171875 59.210938 76.171875 59.824219 C 76.171875 60.542969 76.121094 61.078125 76.027344 61.457031 C 75.957031 61.742188 75.867188 61.933594 75.765625 62.066406 C 75.6875 62.167969 75.609375 62.238281 75.507812 62.296875 C 75.359375 62.382812 75.164062 62.4375 74.902344 62.46875 C 74.640625 62.5 74.320312 62.503906 73.953125 62.503906 C 73.839844 62.503906 73.726562 62.503906 73.609375 62.503906 C 73.523438 62.503906 73.460938 62.5 73.410156 62.496094 L 73.378906 62.492188 C 71.980469 62.421875 70.839844 61.621094 70.457031 60.609375 C 70.40625 60.472656 70.273438 60.382812 70.128906 60.382812 L 67.929688 60.382812 C 67.746094 60.382812 67.59375 60.519531 67.578125 60.703125 L 67.183594 65.179688 L 67.183594 65.210938 C 67.183594 68.03125 65.214844 70.390625 62.578125 70.996094 C 62.417969 71.03125 62.304688 71.171875 62.304688 71.335938 L 62.304688 72.070312 L 63.050781 110.832031 L 63.40625 110.824219 L 63.175781 110.554688 C 63.132812 110.59375 63.089844 110.628906 63.042969 110.667969 C 62.929688 110.761719 62.890625 110.917969 62.941406 111.058594 C 62.992188 111.195312 63.125 111.289062 63.273438 111.289062 C 63.359375 111.289062 63.441406 111.257812 63.503906 111.203125 C 63.546875 111.167969 63.589844 111.132812 63.636719 111.089844 C 71.378906 104.457031 81.320312 93.550781 89.347656 81.160156 C 91.023438 78.578125 92.617188 75.921875 94.089844 73.230469 C 99.726562 62.957031 103.597656 52.097656 103.597656 42.058594 C 103.597656 33.777344 102.402344 27.042969 100.097656 21.597656 C 96.640625 13.421875 90.664062 8.175781 82.59375 5.007812 C 74.519531 1.835938 64.355469 0.710938 52.421875 0.710938 L 52.421875 1.414062 C 60.347656 1.414062 67.476562 1.914062 73.695312 3.175781 C 83.027344 5.066406 90.308594 8.652344 95.265625 14.808594 C 100.226562 20.964844 102.894531 29.734375 102.894531 42.058594 C 102.894531 51.914062 99.074219 62.683594 93.472656 72.890625 C 92.007812 75.566406 90.421875 78.207031 88.753906 80.777344 C 80.769531 93.101562 70.859375 103.976562 63.179688 110.554688 C 63.136719 110.59375 63.09375 110.628906 63.046875 110.667969 L 63.273438 110.9375 L 63.273438 110.582031 L 63.273438 110.9375 L 63.5 111.207031 C 63.542969 111.167969 63.585938 111.132812 63.636719 111.089844 C 63.714844 111.023438 63.761719 110.921875 63.757812 110.816406 L 63.011719 72.054688 L 62.65625 72.0625 L 63.011719 72.0625 L 63.011719 71.335938 L 62.65625 71.335938 L 62.738281 71.683594 C 65.6875 71.003906 67.886719 68.367188 67.890625 65.210938 L 67.535156 65.210938 L 67.886719 65.242188 L 68.253906 61.085938 L 70.128906 61.085938 L 70.128906 60.734375 L 69.800781 60.859375 C 70.308594 62.183594 71.703125 63.109375 73.339844 63.195312 L 73.359375 62.84375 L 73.308594 63.191406 C 73.421875 63.210938 73.523438 63.207031 73.609375 63.207031 C 73.726562 63.207031 73.839844 63.207031 73.953125 63.207031 C 74.394531 63.207031 74.792969 63.203125 75.15625 63.144531 C 75.429688 63.097656 75.6875 63.019531 75.921875 62.871094 C 76.09375 62.761719 76.246094 62.613281 76.371094 62.433594 C 76.558594 62.160156 76.679688 61.820312 76.761719 61.394531 C 76.839844 60.96875 76.875 60.457031 76.875 59.824219 C 76.875 59.066406 76.828125 58.484375 76.714844 58.015625 C 76.628906 57.667969 76.507812 57.378906 76.332031 57.144531 C 76.203125 56.972656 76.042969 56.832031 75.867188 56.726562 C 75.601562 56.574219 75.304688 56.503906 74.992188 56.464844 C 74.675781 56.425781 74.335938 56.421875 73.960938 56.421875 C 73.847656 56.421875 73.730469 56.425781 73.609375 56.425781 C 73.523438 56.425781 73.429688 56.421875 73.324219 56.433594 C 73.140625 56.453125 73.003906 56.605469 73.003906 56.785156 L 73.003906 56.789062 L 73.359375 56.789062 L 73.339844 56.4375 C 71.703125 56.523438 70.308594 57.445312 69.800781 58.769531 L 70.128906 58.894531 L 70.128906 58.542969 L 68.476562 58.542969 L 69.320312 48.988281 L 70.707031 48.988281 L 70.707031 48.636719 L 70.378906 48.761719 C 70.882812 50.078125 72.261719 51 73.886719 51.09375 L 73.90625 50.742188 L 73.65625 50.992188 L 73.660156 50.996094 C 73.714844 51.046875 73.78125 51.082031 73.859375 51.09375 C 73.976562 51.113281 74.074219 51.109375 74.15625 51.109375 C 74.269531 51.109375 74.378906 51.109375 74.484375 51.109375 C 74.90625 51.109375 75.28125 51.109375 75.628906 51.058594 C 75.976562 51.007812 76.300781 50.90625 76.578125 50.695312 C 76.894531 50.453125 77.113281 50.085938 77.238281 49.609375 C 77.371094 49.128906 77.425781 48.519531 77.425781 47.714844 C 77.425781 46.8125 77.355469 46.15625 77.1875 45.652344 C 77.105469 45.398438 76.992188 45.183594 76.847656 45.003906 C 76.703125 44.824219 76.527344 44.683594 76.335938 44.589844 L 76.175781 44.902344 L 76.339844 44.589844 C 76.078125 44.457031 75.792969 44.394531 75.492188 44.359375 C 75.1875 44.328125 74.863281 44.324219 74.507812 44.324219 C 74.390625 44.324219 74.277344 44.328125 74.15625 44.328125 C 74.074219 44.328125 73.980469 44.324219 73.875 44.335938 C 73.792969 44.34375 73.71875 44.378906 73.660156 44.4375 L 73.65625 44.441406 L 73.90625 44.691406 L 73.886719 44.339844 C 72.261719 44.4375 70.882812 45.355469 70.378906 46.675781 L 70.707031 46.800781 L 70.707031 46.445312 L 69.542969 46.445312 L 70.386719 36.890625 L 71.238281 36.890625 L 71.238281 36.539062 L 70.90625 36.664062 C 71.410156 37.980469 72.789062 38.902344 74.417969 38.996094 L 74.4375 38.644531 L 74.1875 38.894531 L 74.191406 38.898438 C 74.25 38.953125 74.324219 38.988281 74.40625 39 C 74.511719 39.007812 74.605469 39.007812 74.691406 39.007812 C 74.8125 39.007812 74.929688 39.007812 75.042969 39.007812 C 75.488281 39.007812 75.878906 39.003906 76.242188 38.945312 C 76.515625 38.898438 76.773438 38.816406 77.003906 38.671875 C 77.179688 38.558594 77.332031 38.414062 77.453125 38.230469 C 77.640625 37.957031 77.761719 37.617188 77.84375 37.195312 C 77.921875 36.769531 77.957031 36.257812 77.957031 35.621094 L 77.957031 35.617188 C 77.957031 34.496094 77.847656 33.757812 77.570312 33.21875 L 77.574219 33.21875 C 77.453125 32.988281 77.300781 32.796875 77.117188 32.652344 C 76.839844 32.4375 76.511719 32.332031 76.164062 32.28125 C 75.8125 32.230469 75.4375 32.226562 75.015625 32.226562 C 74.90625 32.226562 74.800781 32.226562 74.691406 32.226562 C 74.605469 32.226562 74.511719 32.226562 74.40625 32.238281 C 74.324219 32.246094 74.25 32.28125 74.191406 32.339844 L 74.1875 32.34375 L 74.4375 32.59375 L 74.417969 32.242188 C 72.789062 32.335938 71.410156 33.257812 70.90625 34.578125 L 71.234375 34.703125 L 71.234375 34.347656 L 70.613281 34.347656 L 71.347656 26.035156 L 71.347656 26.003906 C 71.347656 25.882812 71.347656 25.757812 71.347656 25.632812 C 71.34375 24.699219 71.332031 23.582031 70.851562 22.644531 C 70.609375 22.175781 70.238281 21.753906 69.707031 21.464844 C 69.175781 21.175781 68.496094 21.019531 67.644531 21.019531 C 67.644531 21.019531 66.261719 21.019531 64.078125 21.019531 C 63.886719 21.019531 63.625 20.957031 63.320312 20.832031 C 62.785156 20.613281 62.117188 20.207031 61.363281 19.714844 C 60.230469 18.972656 58.902344 18.042969 57.449219 17.257812 C 55.996094 16.472656 54.410156 15.832031 52.757812 15.691406 L 52.726562 16.042969 L 53.082031 16.042969 L 53.082031 16.007812 C 53.082031 15.910156 53.042969 15.824219 52.976562 15.757812 C 52.910156 15.6875 52.820312 15.652344 52.726562 15.652344 C 52.589844 15.65625 52.484375 15.671875 52.410156 15.671875 L 52.425781 16.023438 L 52.4375 15.671875 C 52.363281 15.671875 52.257812 15.65625 52.117188 15.652344 C 52.023438 15.652344 51.933594 15.691406 51.867188 15.753906 C 51.800781 15.820312 51.765625 15.914062 51.765625 16.007812 L 51.765625 16.042969 L 52.117188 16.042969 L 52.085938 15.691406 C 49.566406 15.90625 47.210938 17.273438 45.226562 18.5625 C 44.234375 19.207031 43.335938 19.835938 42.566406 20.292969 C 42.183594 20.519531 41.832031 20.707031 41.523438 20.832031 C 41.21875 20.957031 40.960938 21.019531 40.765625 21.019531 C 39.675781 21.019531 38.785156 21.019531 38.164062 21.019531 C 37.546875 21.019531 37.203125 21.019531 37.203125 21.019531 C 36.347656 21.019531 35.671875 21.175781 35.144531 21.464844 C 34.746094 21.679688 34.433594 21.96875 34.203125 22.296875 C 33.859375 22.792969 33.6875 23.363281 33.597656 23.9375 C 33.507812 24.515625 33.5 25.09375 33.5 25.621094 C 33.5 25.75 33.5 25.878906 33.5 26.003906 L 33.503906 26.035156 L 34.230469 34.347656 L 33.601562 34.347656 L 33.601562 34.703125 L 33.933594 34.578125 C 33.433594 33.257812 32.058594 32.332031 30.421875 32.238281 L 30.402344 32.589844 L 30.4375 32.238281 C 30.332031 32.226562 30.234375 32.226562 30.152344 32.226562 C 30.03125 32.226562 29.914062 32.226562 29.796875 32.226562 C 29.355469 32.226562 28.960938 32.230469 28.597656 32.292969 C 28.328125 32.339844 28.070312 32.417969 27.839844 32.566406 C 27.664062 32.675781 27.511719 32.824219 27.386719 33.007812 C 27.203125 33.28125 27.082031 33.621094 27.003906 34.046875 C 26.921875 34.472656 26.886719 34.984375 26.886719 35.621094 C 26.886719 36.375 26.9375 36.957031 27.050781 37.421875 C 27.132812 37.769531 27.257812 38.058594 27.429688 38.289062 C 27.558594 38.464844 27.71875 38.605469 27.894531 38.707031 C 28.164062 38.859375 28.457031 38.929688 28.769531 38.96875 C 29.085938 39.003906 29.425781 39.007812 29.796875 39.007812 C 29.910156 39.007812 30.03125 39.007812 30.152344 39.007812 C 30.234375 39.007812 30.332031 39.007812 30.4375 39 L 30.402344 38.648438 L 30.421875 39 C 32.058594 38.90625 33.433594 37.976562 33.9375 36.664062 L 33.605469 36.539062 L 33.605469 36.890625 L 34.460938 36.890625 L 35.300781 46.445312 L 34.136719 46.445312 L 34.136719 46.800781 L 34.46875 46.675781 C 33.964844 45.355469 32.585938 44.433594 30.957031 44.339844 L 30.941406 44.691406 L 31.175781 44.429688 L 31.175781 44.425781 C 31.117188 44.375 31.046875 44.34375 30.96875 44.335938 C 30.867188 44.324219 30.769531 44.328125 30.6875 44.328125 C 30.578125 44.328125 30.46875 44.324219 30.363281 44.324219 C 29.796875 44.328125 29.308594 44.328125 28.867188 44.453125 C 28.644531 44.515625 28.433594 44.613281 28.25 44.757812 C 28.0625 44.902344 27.910156 45.097656 27.792969 45.332031 L 27.796875 45.328125 C 27.523438 45.871094 27.421875 46.609375 27.417969 47.714844 L 27.417969 47.71875 C 27.417969 48.472656 27.46875 49.058594 27.582031 49.523438 C 27.667969 49.871094 27.792969 50.160156 27.964844 50.394531 C 28.097656 50.566406 28.257812 50.707031 28.433594 50.808594 C 28.703125 50.960938 28.996094 51.03125 29.3125 51.070312 C 29.628906 51.109375 29.96875 51.109375 30.34375 51.109375 L 30.6875 51.109375 C 30.769531 51.109375 30.871094 51.113281 30.988281 51.09375 C 31.058594 51.082031 31.121094 51.050781 31.175781 51.003906 L 31.175781 51 L 30.941406 50.742188 L 30.957031 51.09375 C 32.582031 51 33.964844 50.082031 34.46875 48.761719 L 34.136719 48.636719 L 34.136719 48.988281 L 35.527344 48.988281 L 36.367188 58.539062 L 34.714844 58.539062 L 34.714844 58.894531 L 35.046875 58.769531 C 34.535156 57.445312 33.140625 56.519531 31.5 56.4375 L 31.484375 56.789062 L 31.835938 56.789062 L 31.835938 56.785156 C 31.835938 56.605469 31.699219 56.453125 31.519531 56.433594 C 31.410156 56.421875 31.316406 56.425781 31.234375 56.425781 C 31.113281 56.425781 30.996094 56.421875 30.878906 56.421875 C 30.433594 56.421875 30.042969 56.425781 29.675781 56.488281 C 29.40625 56.535156 29.148438 56.613281 28.917969 56.765625 C 28.742188 56.875 28.589844 57.023438 28.46875 57.203125 C 28.28125 57.476562 28.160156 57.820312 28.078125 58.246094 C 28 58.671875 27.964844 59.1875 27.964844 59.824219 C 27.964844 60.574219 28.015625 61.15625 28.128906 61.625 C 28.214844 61.972656 28.335938 62.261719 28.511719 62.492188 C 28.640625 62.664062 28.800781 62.804688 28.980469 62.90625 C 29.246094 63.0625 29.542969 63.132812 29.859375 63.167969 C 30.175781 63.207031 30.515625 63.207031 30.890625 63.207031 C 31 63.207031 31.117188 63.207031 31.234375 63.207031 C 31.316406 63.207031 31.417969 63.210938 31.535156 63.191406 L 31.484375 62.84375 L 31.5 63.195312 C 32.324219 63.152344 33.082031 62.902344 33.699219 62.492188 C 34.316406 62.089844 34.796875 61.523438 35.046875 60.859375 L 34.714844 60.734375 L 34.714844 61.085938 L 36.59375 61.085938 L 36.957031 65.242188 L 37.308594 65.210938 L 36.957031 65.210938 C 36.957031 68.371094 39.160156 71.003906 42.109375 71.683594 L 42.1875 71.335938 L 41.835938 71.335938 L 41.835938 72.023438 L 42.1875 72.023438 L 41.835938 72.015625 L 41.660156 81.175781 L 41.636719 82.230469 L 41.496094 89.585938 L 41.476562 90.640625 L 41.324219 98.621094 L 41.3125 99.257812 L 41.128906 108.574219 L 41.117188 109.113281 L 41.085938 110.816406 L 41.441406 110.824219 L 41.667969 110.554688 C 33.988281 103.980469 24.078125 93.105469 16.089844 80.777344 C 14.421875 78.207031 12.835938 75.566406 11.375 72.890625 C 5.769531 62.683594 1.949219 51.914062 1.949219 42.058594 C 1.949219 33.84375 3.136719 27.203125 5.398438 21.871094 C 8.789062 13.875 14.574219 8.789062 22.511719 5.664062 C 30.445312 2.542969 40.53125 1.414062 52.421875 1.414062 L 52.421875 1.0625 " fill-opacity="1" fill-rule="nonzero"/></g><path fill="#000000" d="M 58.929688 50.238281 L 59.308594 48.636719 L 59.011719 48.636719 Z M 58.929688 50.238281 " fill-opacity="1" fill-rule="nonzero"/><path fill="#000000" d="M 58.929688 50.238281 L 59.269531 50.320312 L 59.652344 48.71875 C 59.679688 48.613281 59.65625 48.503906 59.585938 48.417969 C 59.519531 48.332031 59.417969 48.285156 59.308594 48.285156 L 59.011719 48.285156 C 58.824219 48.285156 58.667969 48.429688 58.65625 48.617188 L 58.574219 50.21875 C 58.566406 50.402344 58.699219 50.5625 58.878906 50.589844 C 59.058594 50.613281 59.230469 50.496094 59.269531 50.320312 L 58.929688 50.238281 L 59.28125 50.257812 L 59.363281 48.65625 L 59.011719 48.636719 L 59.011719 48.988281 L 59.308594 48.988281 L 59.308594 48.636719 L 58.964844 48.554688 L 58.585938 50.15625 L 58.929688 50.238281 L 59.28125 50.257812 L 58.929688 50.238281 " fill-opacity="1" fill-rule="nonzero"/><path fill="#000000" d="M 59.101562 46.800781 L 59.75 46.800781 L 62.207031 36.539062 L 59.617188 36.539062 L 59.101562 46.800781 " fill-opacity="1" fill-rule="nonzero"/><path fill="#000000" d="M 59.101562 46.800781 L 59.101562 47.152344 L 59.75 47.152344 C 59.914062 47.152344 60.054688 47.039062 60.09375 46.882812 L 62.546875 36.621094 C 62.574219 36.515625 62.550781 36.40625 62.484375 36.320312 C 62.414062 36.234375 62.316406 36.1875 62.207031 36.1875 L 59.617188 36.1875 C 59.429688 36.1875 59.273438 36.332031 59.265625 36.519531 L 58.75 46.78125 C 58.742188 46.878906 58.777344 46.972656 58.84375 47.042969 C 58.910156 47.113281 59.003906 47.152344 59.101562 47.152344 L 59.101562 46.800781 L 59.453125 46.816406 L 59.953125 36.890625 L 61.757812 36.890625 L 59.472656 46.445312 L 59.101562 46.445312 L 59.101562 46.800781 L 59.453125 46.816406 L 59.101562 46.800781 " fill-opacity="1" fill-rule="nonzero"/><path fill="#000000" d="M 58.222656 64.289062 C 58.457031 63.160156 58.707031 61.960938 58.960938 60.734375 L 58.402344 60.734375 L 58.222656 64.289062 " fill-opacity="1" fill-rule="nonzero"/><path fill="#000000" d="M 58.222656 64.289062 L 58.570312 64.359375 C 58.800781 63.234375 59.054688 62.035156 59.304688 60.804688 C 59.328125 60.703125 59.300781 60.59375 59.234375 60.511719 C 59.167969 60.429688 59.066406 60.382812 58.960938 60.382812 L 58.402344 60.382812 C 58.210938 60.382812 58.058594 60.53125 58.046875 60.71875 L 57.871094 64.269531 C 57.863281 64.453125 57.996094 64.613281 58.179688 64.636719 C 58.363281 64.660156 58.53125 64.539062 58.570312 64.359375 L 58.222656 64.289062 L 58.574219 64.304688 L 58.738281 61.085938 L 58.960938 61.085938 L 58.960938 60.734375 L 58.613281 60.664062 C 58.363281 61.890625 58.109375 63.089844 57.878906 64.214844 L 58.222656 64.289062 L 58.574219 64.304688 L 58.222656 64.289062 " fill-opacity="1" fill-rule="nonzero"/><path fill="#000000" d="M 58.496094 58.894531 L 59.339844 58.894531 C 60.167969 54.890625 60.992188 50.898438 61.460938 48.636719 L 60.023438 48.636719 L 58.738281 53.992188 L 58.496094 58.894531 " fill-opacity="1" fill-rule="nonzero"/><path fill="#000000" d="M 58.496094 58.894531 L 58.496094 59.246094 L 59.339844 59.246094 C 59.507812 59.246094 59.652344 59.128906 59.6875 58.964844 C 60.511719 54.964844 61.339844 50.972656 61.808594 48.707031 C 61.828125 48.605469 61.800781 48.496094 61.734375 48.414062 C 61.667969 48.332031 61.566406 48.285156 61.460938 48.285156 L 60.023438 48.285156 C 59.859375 48.285156 59.714844 48.398438 59.679688 48.554688 L 58.394531 53.910156 L 58.386719 53.972656 L 58.140625 58.875 C 58.136719 58.972656 58.171875 59.066406 58.242188 59.136719 C 58.304688 59.207031 58.398438 59.246094 58.496094 59.246094 L 58.496094 58.894531 L 58.847656 58.910156 L 59.089844 54.039062 L 60.300781 48.988281 L 61.460938 48.988281 L 61.460938 48.636719 L 61.117188 48.566406 C 60.648438 50.828125 59.824219 54.820312 58.996094 58.824219 L 59.339844 58.894531 L 59.339844 58.542969 L 58.496094 58.542969 L 58.496094 58.894531 L 58.847656 58.910156 L 58.496094 58.894531 " fill-opacity="1" fill-rule="nonzero"/><path fill="#000000" d="M 61.34375 60.734375 L 60.871094 60.734375 L 60.464844 65.121094 C 60.808594 64.828125 61.039062 64.40625 61.082031 63.921875 L 61.34375 60.734375 " fill-opacity="1" fill-rule="nonzero"/><path fill="#000000" d="M 61.34375 60.734375 L 61.34375 60.382812 L 60.871094 60.382812 C 60.691406 60.382812 60.535156 60.519531 60.519531 60.703125 L 60.113281 65.089844 C 60.097656 65.230469 60.171875 65.367188 60.300781 65.433594 C 60.425781 65.5 60.582031 65.484375 60.691406 65.390625 C 61.105469 65.039062 61.382812 64.53125 61.433594 63.953125 L 61.695312 60.765625 C 61.703125 60.664062 61.671875 60.566406 61.601562 60.496094 C 61.539062 60.421875 61.441406 60.382812 61.34375 60.382812 L 61.34375 60.734375 L 60.992188 60.707031 L 60.730469 63.890625 C 60.695312 64.28125 60.511719 64.613281 60.234375 64.851562 L 60.464844 65.121094 L 60.8125 65.15625 L 61.191406 61.085938 L 61.34375 61.085938 L 61.34375 60.734375 L 60.992188 60.707031 L 61.34375 60.734375 " fill-opacity="1" fill-rule="nonzero"/><path fill="#000000" d="M 63.3125 36.539062 L 62.914062 36.539062 L 60.460938 46.800781 L 61.84375 46.800781 L 61.855469 46.753906 C 61.878906 46.625 62.003906 46.550781 62.128906 46.570312 C 62.234375 46.59375 62.304688 46.695312 62.304688 46.800781 L 62.476562 46.800781 L 63.3125 36.539062 " fill-opacity="1" fill-rule="nonzero"/><path fill="#000000" d="M 63.3125 36.539062 L 63.3125 36.1875 L 62.914062 36.1875 C 62.75 36.1875 62.609375 36.296875 62.570312 36.457031 L 60.113281 46.71875 C 60.089844 46.824219 60.113281 46.933594 60.183594 47.019531 C 60.25 47.105469 60.351562 47.152344 60.460938 47.152344 L 61.84375 47.152344 C 62.003906 47.152344 62.144531 47.042969 62.1875 46.886719 L 62.199219 46.839844 L 62.203125 46.816406 L 62.074219 46.792969 L 62.15625 46.898438 C 62.175781 46.882812 62.199219 46.851562 62.203125 46.816406 L 62.074219 46.792969 L 62.15625 46.898438 L 62.085938 46.808594 L 62.085938 46.921875 L 62.15625 46.898438 L 62.085938 46.808594 L 62.085938 46.921875 L 62.085938 46.757812 L 62.054688 46.917969 L 62.085938 46.921875 L 62.085938 46.757812 L 62.054688 46.917969 L 62.128906 46.570312 L 62.046875 46.914062 L 62.078125 46.789062 L 61.972656 46.867188 L 62.046875 46.914062 L 62.078125 46.789062 L 61.972656 46.867188 L 62.0625 46.800781 L 61.949219 46.800781 L 61.972656 46.867188 L 62.0625 46.800781 L 61.949219 46.800781 C 61.949219 46.894531 61.988281 46.984375 62.054688 47.046875 C 62.121094 47.117188 62.210938 47.152344 62.304688 47.152344 L 62.476562 47.152344 C 62.660156 47.152344 62.8125 47.011719 62.828125 46.828125 L 63.664062 36.566406 C 63.671875 36.46875 63.636719 36.371094 63.570312 36.300781 C 63.503906 36.226562 63.410156 36.1875 63.3125 36.1875 L 63.3125 36.539062 L 62.960938 36.511719 L 62.125 46.773438 L 62.476562 46.800781 L 62.476562 46.445312 L 62.304688 46.445312 L 62.304688 46.800781 L 62.65625 46.800781 C 62.65625 46.667969 62.613281 46.542969 62.535156 46.441406 C 62.460938 46.339844 62.34375 46.257812 62.203125 46.226562 L 62.199219 46.226562 C 62.15625 46.214844 62.117188 46.214844 62.085938 46.214844 C 61.953125 46.214844 61.828125 46.257812 61.722656 46.339844 C 61.617188 46.417969 61.535156 46.542969 61.507812 46.6875 L 61.855469 46.753906 L 61.515625 46.667969 L 61.5 46.714844 L 61.84375 46.800781 L 61.84375 46.445312 L 60.90625 46.445312 L 63.191406 36.890625 L 63.3125 36.890625 L 63.3125 36.539062 L 62.960938 36.511719 L 63.3125 36.539062 " fill-opacity="1" fill-rule="nonzero"/><path fill="#000000" d="M 58.480469 65.324219 C 58.703125 65.449219 58.960938 65.53125 59.230469 65.542969 C 59.589844 65.5625 59.925781 65.472656 60.214844 65.300781 L 60.644531 60.734375 L 59.425781 60.734375 L 58.480469 65.324219 " fill-opacity="1" fill-rule="nonzero"/><path fill="#000000" d="M 58.480469 65.324219 L 58.3125 65.636719 C 58.574219 65.78125 58.882812 65.878906 59.214844 65.894531 L 59.210938 65.894531 C 59.25 65.898438 59.289062 65.898438 59.328125 65.898438 C 59.714844 65.898438 60.082031 65.792969 60.394531 65.605469 C 60.492188 65.550781 60.554688 65.449219 60.566406 65.335938 L 60.992188 60.769531 C 61.003906 60.667969 60.972656 60.570312 60.90625 60.496094 C 60.835938 60.421875 60.742188 60.382812 60.644531 60.382812 L 59.425781 60.382812 C 59.261719 60.382812 59.117188 60.5 59.082031 60.664062 L 58.132812 65.253906 C 58.101562 65.40625 58.175781 65.5625 58.3125 65.636719 L 58.480469 65.324219 L 58.824219 65.398438 L 59.714844 61.085938 L 60.253906 61.085938 L 59.863281 65.269531 L 60.214844 65.300781 L 60.035156 65 C 59.824219 65.121094 59.585938 65.191406 59.328125 65.191406 L 59.246094 65.191406 C 59.035156 65.179688 58.832031 65.117188 58.648438 65.015625 L 58.480469 65.324219 L 58.824219 65.398438 L 58.480469 65.324219 " fill-opacity="1" fill-rule="nonzero"/><path fill="#000000" d="M 62.328125 48.636719 L 61.933594 48.636719 L 59.808594 58.894531 L 60.8125 58.894531 L 60.816406 58.886719 C 60.820312 58.828125 60.871094 58.777344 60.929688 58.777344 L 60.9375 58.785156 C 61 58.789062 61.039062 58.839844 61.039062 58.894531 L 61.488281 58.894531 L 62.328125 48.636719 " fill-opacity="1" fill-rule="nonzero"/><path fill="#000000" d="M 62.328125 48.636719 L 62.328125 48.285156 L 61.933594 48.285156 C 61.765625 48.285156 61.621094 48.402344 61.589844 48.566406 L 59.464844 58.824219 C 59.441406 58.925781 59.46875 59.035156 59.535156 59.117188 C 59.601562 59.199219 59.703125 59.246094 59.808594 59.246094 L 60.8125 59.246094 C 60.9375 59.246094 61.050781 59.183594 61.113281 59.078125 L 61.117188 59.070312 C 61.148438 59.019531 61.164062 58.964844 61.167969 58.910156 L 60.929688 58.894531 L 60.929688 59.132812 C 61.0625 59.128906 61.15625 59.039062 61.167969 58.910156 L 60.929688 58.894531 L 60.929688 59.132812 L 60.929688 58.777344 L 60.742188 59.078125 L 60.75 59.082031 C 60.800781 59.113281 60.859375 59.132812 60.917969 59.136719 L 60.933594 58.890625 L 60.75 59.054688 C 60.789062 59.101562 60.859375 59.132812 60.917969 59.136719 L 60.933594 58.890625 L 60.75 59.054688 L 60.929688 58.894531 L 60.6875 58.894531 C 60.6875 58.949219 60.707031 59.003906 60.75 59.054688 L 60.929688 58.894531 L 60.6875 58.894531 C 60.6875 58.988281 60.722656 59.078125 60.792969 59.144531 C 60.859375 59.210938 60.945312 59.246094 61.039062 59.246094 L 61.488281 59.246094 C 61.671875 59.246094 61.828125 59.105469 61.839844 58.921875 L 62.679688 48.664062 C 62.6875 48.566406 62.652344 48.46875 62.585938 48.398438 C 62.519531 48.328125 62.425781 48.285156 62.328125 48.285156 L 62.328125 48.636719 L 61.976562 48.609375 L 61.164062 58.542969 L 61.039062 58.542969 L 61.039062 58.894531 L 61.394531 58.894531 C 61.394531 58.78125 61.355469 58.675781 61.277344 58.585938 C 61.203125 58.496094 61.082031 58.4375 60.960938 58.433594 L 60.9375 58.785156 L 61.128906 58.488281 L 61.121094 58.480469 C 61.0625 58.445312 61 58.425781 60.929688 58.425781 C 60.679688 58.429688 60.484375 58.613281 60.464844 58.863281 L 60.816406 58.886719 L 60.515625 58.703125 L 60.511719 58.710938 L 60.8125 58.894531 L 60.8125 58.542969 L 60.242188 58.542969 L 62.222656 48.988281 L 62.328125 48.988281 L 62.328125 48.636719 L 61.976562 48.609375 L 62.328125 48.636719 " fill-opacity="1" fill-rule="nonzero"/><g fill="#000000" fill-opacity="1"><g transform="translate(41.891533, 12.791444)"><g><path d="M 2.375 -2.421875 L 2.375 -2.1875 L 1.921875 -2.140625 C 1.960938 -2.085938 2 -2.019531 2.03125 -1.9375 C 2.0625 -1.851562 2.078125 -1.757812 2.078125 -1.65625 C 2.078125 -1.414062 1.992188 -1.222656 1.828125 -1.078125 C 1.671875 -0.941406 1.453125 -0.875 1.171875 -0.875 C 1.097656 -0.875 1.03125 -0.878906 0.96875 -0.890625 C 0.8125 -0.804688 0.734375 -0.703125 0.734375 -0.578125 C 0.734375 -0.515625 0.757812 -0.46875 0.8125 -0.4375 C 0.863281 -0.40625 0.957031 -0.390625 1.09375 -0.390625 L 1.53125 -0.390625 C 1.789062 -0.390625 1.988281 -0.332031 2.125 -0.21875 C 2.269531 -0.101562 2.34375 0.0546875 2.34375 0.265625 C 2.34375 0.535156 2.234375 0.738281 2.015625 0.875 C 1.804688 1.019531 1.492188 1.09375 1.078125 1.09375 C 0.765625 1.09375 0.519531 1.03125 0.34375 0.90625 C 0.175781 0.789062 0.09375 0.625 0.09375 0.40625 C 0.09375 0.257812 0.140625 0.132812 0.234375 0.03125 C 0.328125 -0.0703125 0.457031 -0.144531 0.625 -0.1875 C 0.5625 -0.21875 0.507812 -0.257812 0.46875 -0.3125 C 0.425781 -0.375 0.40625 -0.445312 0.40625 -0.53125 C 0.40625 -0.613281 0.425781 -0.6875 0.46875 -0.75 C 0.519531 -0.820312 0.597656 -0.890625 0.703125 -0.953125 C 0.578125 -1.003906 0.472656 -1.09375 0.390625 -1.21875 C 0.316406 -1.34375 0.28125 -1.484375 0.28125 -1.640625 C 0.28125 -1.898438 0.359375 -2.101562 0.515625 -2.25 C 0.671875 -2.394531 0.894531 -2.46875 1.1875 -2.46875 C 1.320312 -2.46875 1.4375 -2.453125 1.53125 -2.421875 Z M 0.4375 0.40625 C 0.4375 0.539062 0.488281 0.640625 0.59375 0.703125 C 0.707031 0.773438 0.867188 0.8125 1.078125 0.8125 C 1.390625 0.8125 1.617188 0.765625 1.765625 0.671875 C 1.910156 0.578125 1.984375 0.453125 1.984375 0.296875 C 1.984375 0.160156 1.941406 0.0664062 1.859375 0.015625 C 1.785156 -0.0351562 1.632812 -0.0625 1.40625 -0.0625 L 0.96875 -0.0625 C 0.800781 -0.0625 0.671875 -0.0195312 0.578125 0.0625 C 0.484375 0.144531 0.4375 0.257812 0.4375 0.40625 Z M 0.640625 -1.640625 C 0.640625 -1.472656 0.6875 -1.347656 0.78125 -1.265625 C 0.875 -1.179688 1.007812 -1.140625 1.1875 -1.140625 C 1.539062 -1.140625 1.71875 -1.3125 1.71875 -1.65625 C 1.71875 -2.019531 1.535156 -2.203125 1.171875 -2.203125 C 1.003906 -2.203125 0.875 -2.15625 0.78125 -2.0625 C 0.6875 -1.96875 0.640625 -1.828125 0.640625 -1.640625 Z M 0.640625 -1.640625 "/></g></g></g><g fill="#000000" fill-opacity="1"><g transform="translate(44.370585, 12.791444)"><g><path d="M 0.734375 -2.421875 L 0.734375 -0.859375 C 0.734375 -0.660156 0.773438 -0.507812 0.859375 -0.40625 C 0.953125 -0.3125 1.097656 -0.265625 1.296875 -0.265625 C 1.546875 -0.265625 1.726562 -0.332031 1.84375 -0.46875 C 1.96875 -0.601562 2.03125 -0.832031 2.03125 -1.15625 L 2.03125 -2.421875 L 2.390625 -2.421875 L 2.390625 0 L 2.09375 0 L 2.03125 -0.328125 L 2.015625 -0.328125 C 1.941406 -0.203125 1.835938 -0.109375 1.703125 -0.046875 C 1.566406 0.015625 1.414062 0.046875 1.25 0.046875 C 0.945312 0.046875 0.722656 -0.0195312 0.578125 -0.15625 C 0.429688 -0.300781 0.359375 -0.53125 0.359375 -0.84375 L 0.359375 -2.421875 Z M 0.734375 -2.421875 "/></g></g></g><g fill="#000000" fill-opacity="1"><g transform="translate(47.14792, 12.791444)"><g><path d="M 0.75 0 L 0.390625 0 L 0.390625 -2.421875 L 0.75 -2.421875 Z M 0.359375 -3.078125 C 0.359375 -3.160156 0.378906 -3.222656 0.421875 -3.265625 C 0.460938 -3.304688 0.515625 -3.328125 0.578125 -3.328125 C 0.628906 -3.328125 0.675781 -3.304688 0.71875 -3.265625 C 0.769531 -3.222656 0.796875 -3.160156 0.796875 -3.078125 C 0.796875 -2.992188 0.769531 -2.929688 0.71875 -2.890625 C 0.675781 -2.859375 0.628906 -2.84375 0.578125 -2.84375 C 0.515625 -2.84375 0.460938 -2.859375 0.421875 -2.890625 C 0.378906 -2.929688 0.359375 -2.992188 0.359375 -3.078125 Z M 0.359375 -3.078125 "/></g></g></g><g fill="#000000" fill-opacity="1"><g transform="translate(48.292438, 12.791444)"><g><path d="M 1.171875 -0.265625 C 1.234375 -0.265625 1.296875 -0.265625 1.359375 -0.265625 C 1.421875 -0.273438 1.46875 -0.285156 1.5 -0.296875 L 1.5 -0.015625 C 1.457031 -0.00390625 1.398438 0.00390625 1.328125 0.015625 C 1.253906 0.0351562 1.1875 0.046875 1.125 0.046875 C 0.65625 0.046875 0.421875 -0.203125 0.421875 -0.703125 L 0.421875 -2.140625 L 0.0625 -2.140625 L 0.0625 -2.3125 L 0.421875 -2.46875 L 0.578125 -2.984375 L 0.78125 -2.984375 L 0.78125 -2.421875 L 1.484375 -2.421875 L 1.484375 -2.140625 L 0.78125 -2.140625 L 0.78125 -0.71875 C 0.78125 -0.570312 0.8125 -0.457031 0.875 -0.375 C 0.945312 -0.300781 1.046875 -0.265625 1.171875 -0.265625 Z M 1.171875 -0.265625 "/></g></g></g><g fill="#000000" fill-opacity="1"><g transform="translate(49.889904, 12.791444)"><g><path d="M 1.875 0 L 1.8125 -0.34375 L 1.796875 -0.34375 C 1.671875 -0.195312 1.546875 -0.09375 1.421875 -0.03125 C 1.304688 0.0195312 1.160156 0.046875 0.984375 0.046875 C 0.742188 0.046875 0.550781 -0.015625 0.40625 -0.140625 C 0.269531 -0.265625 0.203125 -0.441406 0.203125 -0.671875 C 0.203125 -1.160156 0.597656 -1.414062 1.390625 -1.4375 L 1.796875 -1.453125 L 1.796875 -1.609375 C 1.796875 -1.796875 1.753906 -1.929688 1.671875 -2.015625 C 1.585938 -2.109375 1.457031 -2.15625 1.28125 -2.15625 C 1.070312 -2.15625 0.84375 -2.09375 0.59375 -1.96875 L 0.484375 -2.25 C 0.597656 -2.320312 0.726562 -2.375 0.875 -2.40625 C 1.019531 -2.445312 1.160156 -2.46875 1.296875 -2.46875 C 1.585938 -2.46875 1.800781 -2.398438 1.9375 -2.265625 C 2.082031 -2.140625 2.15625 -1.9375 2.15625 -1.65625 L 2.15625 0 Z M 1.046875 -0.265625 C 1.273438 -0.265625 1.453125 -0.328125 1.578125 -0.453125 C 1.710938 -0.578125 1.78125 -0.75 1.78125 -0.96875 L 1.78125 -1.1875 L 1.421875 -1.171875 C 1.128906 -1.160156 0.914062 -1.113281 0.78125 -1.03125 C 0.65625 -0.957031 0.59375 -0.835938 0.59375 -0.671875 C 0.59375 -0.535156 0.628906 -0.429688 0.703125 -0.359375 C 0.785156 -0.296875 0.898438 -0.265625 1.046875 -0.265625 Z M 1.046875 -0.265625 "/></g></g></g><g fill="#000000" fill-opacity="1"><g transform="translate(52.406519, 12.791444)"><g><path d="M 1.5 -2.46875 C 1.601562 -2.46875 1.695312 -2.457031 1.78125 -2.4375 L 1.734375 -2.109375 C 1.628906 -2.128906 1.539062 -2.140625 1.46875 -2.140625 C 1.269531 -2.140625 1.097656 -2.054688 0.953125 -1.890625 C 0.816406 -1.734375 0.75 -1.535156 0.75 -1.296875 L 0.75 0 L 0.390625 0 L 0.390625 -2.421875 L 0.6875 -2.421875 L 0.734375 -1.96875 L 0.75 -1.96875 C 0.84375 -2.132812 0.953125 -2.257812 1.078125 -2.34375 C 1.203125 -2.425781 1.34375 -2.46875 1.5 -2.46875 Z M 1.5 -2.46875 "/></g></g></g><g fill="#000000" fill-opacity="1"><g transform="translate(54.253655, 12.791444)"><g><path d="M 0.75 0 L 0.390625 0 L 0.390625 -2.421875 L 0.75 -2.421875 Z M 0.359375 -3.078125 C 0.359375 -3.160156 0.378906 -3.222656 0.421875 -3.265625 C 0.460938 -3.304688 0.515625 -3.328125 0.578125 -3.328125 C 0.628906 -3.328125 0.675781 -3.304688 0.71875 -3.265625 C 0.769531 -3.222656 0.796875 -3.160156 0.796875 -3.078125 C 0.796875 -2.992188 0.769531 -2.929688 0.71875 -2.890625 C 0.675781 -2.859375 0.628906 -2.84375 0.578125 -2.84375 C 0.515625 -2.84375 0.460938 -2.859375 0.421875 -2.890625 C 0.378906 -2.929688 0.359375 -2.992188 0.359375 -3.078125 Z M 0.359375 -3.078125 "/></g></g></g><g fill="#000000" fill-opacity="1"><g transform="translate(55.398173, 12.791444)"><g><path d="M 1.953125 -0.65625 C 1.953125 -0.4375 1.867188 -0.265625 1.703125 -0.140625 C 1.535156 -0.015625 1.300781 0.046875 1 0.046875 C 0.675781 0.046875 0.421875 -0.00390625 0.234375 -0.109375 L 0.234375 -0.453125 C 0.359375 -0.390625 0.484375 -0.34375 0.609375 -0.3125 C 0.742188 -0.28125 0.875 -0.265625 1 -0.265625 C 1.195312 -0.265625 1.34375 -0.289062 1.4375 -0.34375 C 1.539062 -0.40625 1.59375 -0.5 1.59375 -0.625 C 1.59375 -0.71875 1.550781 -0.796875 1.46875 -0.859375 C 1.394531 -0.929688 1.238281 -1.015625 1 -1.109375 C 0.769531 -1.191406 0.609375 -1.265625 0.515625 -1.328125 C 0.421875 -1.390625 0.347656 -1.457031 0.296875 -1.53125 C 0.253906 -1.613281 0.234375 -1.710938 0.234375 -1.828125 C 0.234375 -2.023438 0.3125 -2.179688 0.46875 -2.296875 C 0.632812 -2.410156 0.859375 -2.46875 1.140625 -2.46875 C 1.398438 -2.46875 1.65625 -2.414062 1.90625 -2.3125 L 1.765625 -2.015625 C 1.523438 -2.109375 1.304688 -2.15625 1.109375 -2.15625 C 0.929688 -2.15625 0.796875 -2.128906 0.703125 -2.078125 C 0.617188 -2.023438 0.578125 -1.953125 0.578125 -1.859375 C 0.578125 -1.785156 0.59375 -1.726562 0.625 -1.6875 C 0.664062 -1.644531 0.722656 -1.601562 0.796875 -1.5625 C 0.867188 -1.519531 1.007812 -1.457031 1.21875 -1.375 C 1.507812 -1.269531 1.703125 -1.164062 1.796875 -1.0625 C 1.898438 -0.957031 1.953125 -0.820312 1.953125 -0.65625 Z M 1.953125 -0.65625 "/></g></g></g><g fill="#000000" fill-opacity="1"><g transform="translate(57.55685, 12.791444)"><g><path d="M 1.171875 -0.265625 C 1.234375 -0.265625 1.296875 -0.265625 1.359375 -0.265625 C 1.421875 -0.273438 1.46875 -0.285156 1.5 -0.296875 L 1.5 -0.015625 C 1.457031 -0.00390625 1.398438 0.00390625 1.328125 0.015625 C 1.253906 0.0351562 1.1875 0.046875 1.125 0.046875 C 0.65625 0.046875 0.421875 -0.203125 0.421875 -0.703125 L 0.421875 -2.140625 L 0.0625 -2.140625 L 0.0625 -2.3125 L 0.421875 -2.46875 L 0.578125 -2.984375 L 0.78125 -2.984375 L 0.78125 -2.421875 L 1.484375 -2.421875 L 1.484375 -2.140625 L 0.78125 -2.140625 L 0.78125 -0.71875 C 0.78125 -0.570312 0.8125 -0.457031 0.875 -0.375 C 0.945312 -0.300781 1.046875 -0.265625 1.171875 -0.265625 Z M 1.171875 -0.265625 "/></g></g></g></svg>